HIERARCHY
ROOT Hips
{
 OFFSET 0.000000 0.000000 0.000000
 CHANNELS 6 Xposition Yposition Zposition Yrotation Xrotation Zrotation
 JOINT Chest
 {
  OFFSET 0.000000 10.354800 0.006500
  CHANNELS 3 Yrotation Xrotation Zrotation
  JOINT Chest2
  {
   OFFSET 0.000000 10.435800 -0.013200
   CHANNELS 3 Yrotation Xrotation Zrotation
   JOINT Chest3
   {
    OFFSET 0.000000 10.393700 0.000000
    CHANNELS 3 Yrotation Xrotation Zrotation
    JOINT Chest4
    {
     OFFSET 0.000000 10.383100 0.000000
     CHANNELS 3 Yrotation Xrotation Zrotation
     JOINT Neck
     {
      OFFSET 0.000000 15.694000 0.000000
      CHANNELS 3 Yrotation Xrotation Zrotation
      JOINT Head
      {
       OFFSET 0.000000 9.711000 -0.028000
       CHANNELS 3 Yrotation Xrotation Zrotation
       End Site
       {
        OFFSET 0.000000 18.578700 -0.014800
       }
      }
     }
     JOINT RightCollar
     {
      OFFSET -3.157200 10.367500 0.000000
      CHANNELS 3 Yrotation Xrotation Zrotation
      JOINT RightShoulder
      {
       OFFSET -14.482500 0.000000 0.000000
       CHANNELS 3 Yrotation Xrotation Zrotation
       JOINT RightElbow
       {
        OFFSET 0.000000 -31.707800 0.000000
        CHANNELS 3 Yrotation Xrotation Zrotation
        JOINT RightWrist
        {
         OFFSET 0.000000 -25.659300 0.000000
         CHANNELS 3 Yrotation Xrotation Zrotation
         End Site
         {
          OFFSET 0.000000 -18.994300 0.000000
         }
        }
       }
      }
     }
     JOINT LeftCollar
     {
      OFFSET 3.157200 10.367500 0.000000
      CHANNELS 3 Yrotation Xrotation Zrotation
      JOINT LeftShoulder
      {
       OFFSET 14.482500 0.000000 0.000000
       CHANNELS 3 Yrotation Xrotation Zrotation
       JOINT LeftElbow
       {
        OFFSET 0.000000 -31.707800 0.000000
        CHANNELS 3 Yrotation Xrotation Zrotation
        JOINT LeftWrist
        {
         OFFSET 0.000000 -25.659300 0.000000
         CHANNELS 3 Yrotation Xrotation Zrotation
         End Site
         {
          OFFSET 0.000000 -18.994300 0.000000
         }
        }
       }
      }
     }
    }
   }
  }
 }
 JOINT RightHip
 {
  OFFSET -8.365600 -0.032100 -0.003200
  CHANNELS 3 Yrotation Xrotation Zrotation
  JOINT RightKnee
  {
   OFFSET 0.000000 -43.980000 0.003100
   CHANNELS 3 Yrotation Xrotation Zrotation
   JOINT RightAnkle
   {
    OFFSET 0.000000 -42.882800 0.005200
    CHANNELS 3 Yrotation Xrotation Zrotation
    JOINT RightToe
    {
     OFFSET 0.000000 -4.915500 10.826300
     CHANNELS 3 Yrotation Xrotation Zrotation
     End Site
     {
      OFFSET 0.000000 -1.517500 6.175900
     }
    }
   }
  }
 }
 JOINT LeftHip
 {
  OFFSET 8.365600 -0.032100 -0.003200
  CHANNELS 3 Yrotation Xrotation Zrotation
  JOINT LeftKnee
  {
   OFFSET 0.000000 -43.980000 0.003100
   CHANNELS 3 Yrotation Xrotation Zrotation
   JOINT LeftAnkle
   {
    OFFSET 0.000000 -42.882800 0.005200
    CHANNELS 3 Yrotation Xrotation Zrotation
    JOINT LeftToe
    {
     OFFSET 0.000000 -4.915500 10.826300
     CHANNELS 3 Yrotation Xrotation Zrotation
     End Site
     {
      OFFSET 0.000000 -1.517500 6.175900
     }
    }
   }
  }
 }
}
MOTION
Frames: 8
Frame Time: 0.008333
0.000000 91.618600 0.000000 0.000000 -5.767877 0.000000 0.000000 11.653817 0.000000 0.000000 -5.885947 0.000000 0.000000 -0.000000 0.000000 0.000000 -0.000000 0.000000 0.000000 12.528835 0.000000 0.000000 0.711642 0.000000 0.000000 -0.000000 0.000000 0.000000 0.000000 -90.000000 0.000000 -2.309062 0.000000 0.000000 2.309062 0.000000 0.000000 -0.000000 0.000000 0.000000 -0.000000 90.000000 0.000000 -2.309062 0.000000 0.000000 2.309062 0.000000 0.000000 8.520406 0.000000 0.000000 1.905762 0.000000 -0.000000 -4.658285 0.000000 0.000000 -0.000000 0.000000 0.000000 8.520406 0.000000 0.000000 1.905762 0.000000 -0.000000 -4.658285 0.000000 0.000000 -0.000000 0.000000
87.081171 126.406185 117.606627 176.732359 -18.716976 -4.178908 -1.261958 10.155677 2.816687 -0.099122 0.641221 0.185624 -0.163260 1.113764 0.319702 -1.177400 9.376503 2.609285 2.920793 18.317758 -1.822776 3.519896 -6.345209 -2.606236 0.179534 6.337067 -5.870830 -15.230245 -22.681263 -14.189111 -135.208732 -53.614487 150.153006 -19.952468 1.342552 3.770140 -2.086773 8.282328 1.150357 30.046532 -17.836813 -3.296897 136.793332 -45.572912 -163.924979 20.197348 1.062209 9.189289 11.944978 -63.423062 -1.264666 -109.345778 79.945396 -102.544310 5.146602 -13.602975 -13.826784 0.001333 -0.004780 0.000605 -23.323177 -62.589175 18.009278 69.388068 80.636458 65.506145 -6.806502 -5.815612 -1.577057 0.004023 0.002445 0.001827
87.081134 126.405870 117.607470 176.728489 -18.715838 -4.179007 -1.254940 10.157109 2.818445 -0.098197 0.644479 0.186656 -0.162592 1.114345 0.320346 -1.179312 9.371868 2.609588 2.988381 18.245851 -1.854010 3.591091 -6.427102 -2.655588 0.253590 6.249281 -5.834204 -15.078918 -22.688702 -14.386502 -134.620568 -53.404679 149.873863 -20.187481 1.533052 4.376327 -2.108633 8.232224 1.152025 29.984135 -18.005413 -3.286007 136.877729 -45.505416 -164.127063 20.100168 2.142057 9.248221 11.940618 -63.422694 -1.260079 -109.334261 79.947754 -102.538548 5.138926 -13.616716 -13.825364 -0.000823 -0.005511 -0.000374 -23.324128 -62.589671 18.013474 69.414948 80.631466 65.530979 -6.816683 -5.816550 -1.574229 0.003608 0.002597 0.001638
87.081133 126.405622 117.608102 176.726984 -18.716915 -4.179857 -1.251524 10.159570 2.819546 -0.095601 0.645990 0.187263 -0.161918 1.115160 0.320979 -1.172916 9.375124 2.614054 3.054605 18.167725 -1.889009 3.673428 -6.507908 -2.707540 0.278887 6.192809 -5.821825 -14.880985 -22.741764 -14.558740 -134.120997 -53.225128 149.647621 -20.392363 1.727258 4.999487 -2.142875 8.178314 1.145829 29.934117 -18.195656 -3.275338 136.907478 -45.448499 -164.296696 20.009451 3.316618 9.323107 11.936985 -63.421044 -1.256544 -109.316185 79.945801 -102.525048 5.140279 -13.620578 -13.823351 -0.000117 -0.006540 -0.000053 -23.323334 -62.585712 18.010441 69.398423 80.621981 65.514146 -6.825591 -5.812557 -1.572336 0.001924 0.003587 0.000873
87.081869 126.405455 117.608692 176.719951 -18.719900 -4.182626 -1.243246 10.163513 2.824603 -0.094615 0.646075 0.186825 -0.161227 1.115961 0.321239 -1.165847 9.378560 2.616760 3.127356 18.091645 -1.921896 3.763603 -6.587090 -2.761967 0.310718 6.138990 -5.808118 -14.669803 -22.810941 -14.734075 -133.699980 -53.077906 149.465934 -20.560473 1.924027 5.620760 -2.170473 8.124348 1.137622 29.893314 -18.405551 -3.258594 136.874219 -45.411393 -164.426495 19.959984 4.550026 9.419622 11.929938 -63.417207 -1.244311 -109.259677 79.941442 -102.474608 5.154788 -13.619508 -13.820717 0.000675 -0.006792 0.000306 -23.320159 -62.580758 18.014473 69.390085 80.619922 65.505529 -6.819528 -5.808980 -1.573139 0.002548 0.004433 0.001157
87.082314 126.405147 117.609680 176.715303 -18.720780 -4.184086 -1.239863 10.165890 2.828196 -0.094018 0.648559 0.187265 -0.159141 1.114225 0.320221 -1.160732 9.388773 2.622821 3.202087 18.011900 -1.959714 3.856310 -6.664757 -2.818153 0.349612 6.077209 -5.796190 -14.449498 -22.898111 -14.922357 -133.331615 -52.970560 149.307860 -20.691249 2.115607 6.232203 -2.218427 7.987975 1.107605 29.864140 -18.576350 -3.176693 136.798944 -45.402953 -164.514907 19.959425 5.806584 9.523178 11.929097 -63.416685 -1.241540 -109.198878 79.931471 -102.420683 5.179051 -13.610192 -13.815651 0.000906 -0.007627 0.000412 -23.318623 -62.583755 18.013138 69.415681 80.615652 65.532944 -6.818330 -5.803153 -1.570956 -0.000639 0.002017 -0.000290
87.082047 126.404884 117.610314 176.714651 -18.723152 -4.182006 -1.241109 10.169222 2.826664 -0.096205 0.650798 0.188410 -0.155457 1.114081 0.319884 -1.158652 9.395246 2.625610 3.279170 17.940634 -1.996693 3.947934 -6.738612 -2.875989 0.395700 6.011523 -5.779750 -14.218544 -22.997831 -15.132564 -133.013713 -52.906851 149.161287 -20.784317 2.303195 6.841376 -2.246313 7.905951 1.091619 29.825030 -18.804996 -3.111588 136.711498 -45.434504 -164.566745 19.990926 7.043950 9.599566 11.939760 -63.414422 -1.258662 -109.190027 79.931886 -102.411086 5.175195 -13.599004 -13.809677 -0.001985 -0.006607 -0.000901 -23.312984 -62.583667 18.005188 69.407801 80.613557 65.525308 -6.818265 -5.798265 -1.570683 -0.001091 0.001077 -0.000495
87.082736 126.404801 117.610722 176.703402 -18.727649 -4.180883 -1.232862 10.174547 2.829517 -0.096883 0.653432 0.189795 -0.156707 1.114715 0.319982 -1.152814 9.400308 2.628664 3.315869 17.901903 -2.019447 4.075092 -6.829012 -2.967839 0.445236 5.937474 -5.763374 -13.967209 -23.106991 -15.366805 -132.763415 -52.890824 149.022686 -20.836701 2.502110 7.461671 -2.279646 7.821892 1.076618 29.766220 -19.045508 -3.018554 136.641661 -45.512680 -164.583379 20.062117 8.207444 9.612785 11.946663 -63.412542 -1.255157 -109.166249 79.926044 -102.390614 5.173265 -13.579149 -13.802080 -0.002605 -0.003640 -0.001183 -23.304337 -62.579886 18.004050 69.383944 80.613284 65.507333 -6.814230 -5.793641 -1.577202 0.000558 -0.000049 0.000253
